# xmcd
#
# Track frame offsets:
# 183
# 43338
# 100090
# 123440
# 154595
# 178813
# 204973
# 245628
# 275135
#
# Disc length: 3956 seconds
#
#
# Revision: 0
# Processed by: cddbd v1.5.2PL0 Copyright (c) Steve Scherf et al.
# Submitted via: FreeRIP 2.951 
#
DISCID=800f7209
DTITLE=Jimi Hendrix - Band of Gypsys
DYEAR=1969
DGENRE=Psychedelic Rock
TTITLE0=Who Knows
TTITLE1=Machine Gun
TTITLE2=Them Changes
TTITLE3=Power of Love
TTITLE4=Message To Love
TTITLE5=We Gotta Live Together
TTITLE6=Hear My Train
TTITLE7=Foxy Lady
TTITLE8=Stop
EXTD=
EXTT0=
EXTT1=
EXTT2=
EXTT3=
EXTT4=
EXTT5=
EXTT6=
EXTT7=
EXTT8=
PLAYORDER=
